<svg xmlns="http://www.w3.org/2000/svg" width="45" height="24">
  <path fill="#A7A9AC" fill-rule="evenodd" d="M0 18.278V4.82C0 1.909 1.747 0 4.464 0c2.653 0 4.368 1.78 4.368 4.788v2.07H7.214V4.82c0-2.232-.938-3.267-2.717-3.267-1.618 0-2.782 1.229-2.782 3.267v13.49c0 1.618.938 3.235 2.782 3.235s2.685-1.52 2.685-3.202v-1.942h1.65v1.942c0 2.329-1.359 4.755-4.335 4.755-2.815 0-4.497-2.167-4.497-4.82M13.49 4.724v13.683c0 1.65.873 3.139 2.783 3.139 1.779 0 2.652-1.456 2.652-3.171V4.755c0-1.584-.809-3.201-2.652-3.201-1.91 0-2.782 1.423-2.782 3.17m-1.716 13.683V4.723c0-2.425 1.521-4.69 4.498-4.69 2.718 0 4.302 2.2 4.302 4.722v13.62c0 2.395-1.424 4.723-4.302 4.723-2.814 0-4.498-2.136-4.498-4.69M25.59 15.43h2.394c1.164 0 2.717-1.067 2.717-3.073V4.82c0-1.876-.905-3.073-2.717-3.073H25.59V15.43zm6.89 7.44h-1.682v-3.978c0-1.165-.744-1.941-2.006-1.941H25.59v5.92h-1.714V.227h4.108c2.458.032 4.432 1.294 4.367 4.593v7.538c0 1.262-.647 2.782-1.844 3.558 1.359.518 1.973 1.715 1.973 2.977v3.979zM42.8 4.757c0-1.876-1.003-3.01-2.75-3.01h-2.685v13.492h2.685c1.391 0 2.75-1.133 2.75-3.074V4.756zm1.65 7.408c0 2.265-1.585 4.594-4.4 4.594h-2.685v6.114h-1.714V.227h4.4c2.07 0 4.4 1.197 4.4 4.529v7.408z"/>
</svg>
