<svg xmlns="http://www.w3.org/2000/svg" width="129" height="55">
  <path fill="#403F41" fill-rule="evenodd" d="M.001 43.234v-5.185h3.965v5.185c-.153 3.965 2.059 7.7 6.633 7.7 4.194 0 6.329-3.354 6.329-7.547v-3.585c0-3.507-3.126-4.88-6.786-6.94C5.796 30.423.611 27.909.153 21.809V11.133c0-6.1 3.051-10.98 9.76-10.98 6.024 0 9.455 4.65 9.455 10.827v6.939h-3.889v-6.863c0-3.966-1.524-7.243-5.566-7.243-3.431 0-5.718 2.363-5.718 7.32v10.522c.229 3.507 3.354 5.489 6.481 7.243 5.413 3.05 10.141 5.185 10.141 10.599v3.89c0 5.947-3.279 11.132-10.218 11.132-6.252 0-10.674-4.5-10.598-11.285m27.45-.153v-31.72C27.451 4.497 31.568 0 37.973 0c6.253 0 10.294 4.193 10.294 11.284v4.88h-3.812v-4.803c0-5.261-2.212-7.701-6.406-7.701-3.812 0-6.557 2.896-6.557 7.701v31.796c0 3.812 2.211 7.625 6.557 7.625 4.347 0 6.33-3.583 6.33-7.548v-4.576h3.888v4.576c0 5.489-3.202 11.208-10.218 11.208-6.633 0-10.598-5.108-10.598-11.361m31.797-31.949v32.254c0 3.888 2.06 7.396 6.557 7.396 4.194 0 6.253-3.432 6.253-7.473v-32.1c0-3.737-1.906-7.55-6.253-7.55-4.498 0-6.557 3.355-6.557 7.473m-4.04 32.254V11.132C55.207 5.413 58.79.075 65.804.075c6.406 0 10.142 5.185 10.142 11.133V43.31c0 5.643-3.355 11.133-10.142 11.133-6.633 0-10.598-5.033-10.598-11.056m49.107-.077c0 5.643-3.355 11.21-10.37 11.21-6.405 0-10.37-5.11-10.37-11.286V.533h4.04v42.7c0 3.813 1.83 7.701 6.33 7.701 4.804 0 6.481-3.507 6.481-7.625V.533h3.889V43.31zm24.249-39.269h-7.396v49.868h-3.889V4.041h-7.472V.534h18.757z"/>
</svg>
