<svg version="1" xmlns="http://www.w3.org/2000/svg" width="21.333" height="21.333" viewBox="0 0 16 16"><path d="M7.468 5.14c-2.61.711-4.783 1.301-4.826 1.312a.275.275 0 0 0-.139.103c-.067.107-1.045 4.097-1.045 4.271 0 .16.135.263.28.206.05-.018.659-.455 1.352-.967 1.216-.907 1.259-.935 1.32-.871.031.039.58.707 1.208 1.49.63.782 1.188 1.444 1.234 1.468.05.029.125.04.171.029.064-.018.523-.662 1.764-2.475l1.678-2.454.11.068c.061.035.897.512 1.853 1.052 1.074.608 1.778.989 1.839.989.117 0 .192-.057.22-.167.029-.118-1.867-5.206-1.973-5.295a.357.357 0 0 0-.189-.057c-.06.004-2.247.587-4.857 1.298zm4.338-.683c0 .036-1.536 2.262-1.558 2.262-.241-.004-5.96-.214-5.967-.22-.007-.011 7.422-2.042 7.5-2.052.014-.004.025.003.025.01zm.533.142c0 .008.335.914.747 2.013.409 1.103.743 2.006.736 2.013-.007.007-3.044-1.714-3.072-1.743-.01-.01.33-.53.757-1.155.669-.978.832-1.202.832-1.128zM6.9 7.057c1.536.05 2.848.103 2.92.117l.127.025-1.486 2.17c-.815 1.19-1.497 2.172-1.515 2.175-.029.011-3.634-4.42-3.723-4.57-.029-.045.021-.049.426-.031.253.014 1.714.064 3.25.114zm-3.503.874c.313.388.59.74.615.776.043.06-.035.128-.942.796-.544.406-.992.722-1 .704-.003-.014.154-.686.35-1.493.195-.804.355-1.472.355-1.48 0-.064.12.072.622.697z"/></svg>