<svg width="300" height="300" viewBox="0 0 300 300" xmlns="http://www.w3.org/2000/svg"><title>Artboard</title><g fill="none" fill-rule="evenodd"><path d="M127.754 231.652v-13.458c0-2.911 1.747-4.82 4.464-4.82 2.653 0 4.368 1.78 4.368 4.788v2.07h-1.618v-2.038c0-2.232-.938-3.267-2.717-3.267-1.618 0-2.782 1.229-2.782 3.267v13.49c0 1.618.938 3.235 2.782 3.235s2.685-1.52 2.685-3.202v-1.942h1.65v1.942c0 2.329-1.359 4.755-4.335 4.755-2.815 0-4.497-2.167-4.497-4.82M141.244 218.098v13.684c0 1.65.873 3.138 2.782 3.138 1.779 0 2.653-1.456 2.653-3.171V218.13c0-1.585-.809-3.202-2.653-3.202-1.909 0-2.782 1.423-2.782 3.17m-1.715 13.684v-13.684c0-2.426 1.521-4.691 4.497-4.691 2.718 0 4.302 2.2 4.302 4.723v13.619c0 2.395-1.423 4.723-4.302 4.723-2.814 0-4.497-2.135-4.497-4.69M153.343 228.805h2.394c1.164 0 2.717-1.067 2.717-3.073v-7.538c0-1.876-.905-3.073-2.717-3.073h-2.394v13.684zm6.89 7.441h-1.682v-3.979c0-1.165-.744-1.941-2.006-1.941h-3.202v5.92h-1.714v-22.645h4.108c2.458.032 4.432 1.294 4.367 4.593v7.538c0 1.262-.647 2.782-1.844 3.558 1.359.518 1.973 1.715 1.973 2.977v3.979zM170.554 218.13c0-1.876-1.003-3.009-2.75-3.009h-2.685v13.491h2.685c1.391 0 2.75-1.133 2.75-3.074v-7.408zm1.65 7.408c0 2.265-1.585 4.594-4.4 4.594h-2.685v6.114h-1.714v-22.645h4.399c2.07 0 4.4 1.197 4.4 4.529v7.408z" fill="#A7A9AC"/><path d="M86.057 191.263v-5.185h3.965v5.185c-.153 3.965 2.059 7.701 6.633 7.701 4.194 0 6.329-3.355 6.329-7.548v-3.585c0-3.507-3.126-4.88-6.786-6.939-4.346-2.44-9.531-4.955-9.989-11.055v-10.675c0-6.1 3.051-10.98 9.76-10.98 6.024 0 9.455 4.65 9.455 10.827v6.939h-3.889v-6.863c0-3.966-1.524-7.243-5.566-7.243-3.431 0-5.718 2.363-5.718 7.32v10.522c.229 3.507 3.354 5.489 6.481 7.243 5.413 3.051 10.141 5.185 10.141 10.599v3.89c0 5.947-3.279 11.132-10.218 11.132-6.252 0-10.674-4.499-10.598-11.285M113.508 191.11v-31.72c0-6.864 4.117-11.361 10.522-11.361 6.253 0 10.294 4.193 10.294 11.284v4.88h-3.812v-4.803c0-5.261-2.212-7.701-6.406-7.701-3.812 0-6.557 2.896-6.557 7.701v31.796c0 3.812 2.211 7.625 6.557 7.625 4.347 0 6.329-3.583 6.329-7.548v-4.576h3.889v4.576c0 5.489-3.202 11.208-10.218 11.208-6.633 0-10.598-5.108-10.598-11.361M145.305 159.162v32.254c0 3.888 2.059 7.396 6.557 7.396 4.194 0 6.253-3.432 6.253-7.473v-32.101c0-3.736-1.906-7.549-6.253-7.549-4.498 0-6.557 3.355-6.557 7.473m-4.041 32.254v-32.254c0-5.719 3.584-11.057 10.598-11.057 6.406 0 10.142 5.185 10.142 11.133v32.101c0 5.643-3.355 11.133-10.142 11.133-6.633 0-10.598-5.033-10.598-11.056M190.37 191.339c0 5.643-3.355 11.21-10.37 11.21-6.405 0-10.37-5.11-10.37-11.286v-42.7h4.041v42.7c0 3.813 1.83 7.701 6.329 7.701 4.804 0 6.481-3.507 6.481-7.625v-42.776h3.889v42.776zM214.618 152.07h-7.396v49.868h-3.889V152.07h-7.472v-3.507h18.757z" fill="#403F41"/><path d="M114.226 108.39l-.801.595-24.69 18.321c-.442.329-.695.16-.565-.373l9.289-38.024c.13-.535.523-.613.864-.191l15.275 18.895 1.262 1.561 23.38 28.924c.351.433.891.409 1.195-.035l31.936-46.69 1.121-1.64 17.983-26.29c.31-.453.72-.395.91.117l17.604 47.237c.193.517-.046.713-.52.445L172.8 91.046c-.48-.272-1.308-.506-1.869-.525L98.3 88.133c-.552-.018-.56-.15-.04-.288l91.819-24.44" stroke="#ACCCCF" stroke-width="4"/></g></svg>